<svg width="55" height="55" viewBox="0 0 55 55" fill="none" xmlns="http://www.w3.org/2000/svg">
<path d="M25.2084 38.9582H16.0417C12.8716 38.9582 10.1697 37.8406 7.93608 35.6055C5.70247 33.3703 4.5849 30.6684 4.58338 27.4998C4.58185 24.3312 5.69942 21.6294 7.93608 19.3942C10.1728 17.1591 12.8746 16.0415 16.0417 16.0415H25.2084V20.6248H16.0417C14.132 20.6248 12.5087 21.2932 11.1719 22.63C9.83511 23.9669 9.16671 25.5901 9.16671 27.4998C9.16671 29.4096 9.83511 31.0328 11.1719 32.3696C12.5087 33.7064 14.132 34.3748 16.0417 34.3748H25.2084V38.9582ZM18.3334 29.7915V25.2082H36.6667V29.7915H18.3334ZM29.7917 38.9582V34.3748H38.9584C40.8681 34.3748 42.4914 33.7064 43.8282 32.3696C45.165 31.0328 45.8334 29.4096 45.8334 27.4998C45.8334 25.5901 45.165 23.9669 43.8282 22.63C42.4914 21.2932 40.8681 20.6248 38.9584 20.6248H29.7917V16.0415H38.9584C42.1285 16.0415 44.8312 17.1591 47.0663 19.3942C49.3014 21.6294 50.4182 24.3312 50.4167 27.4998C50.4152 30.6684 49.2976 33.3711 47.064 35.6078C44.8304 37.8444 42.1285 38.9612 38.9584 38.9582H29.7917Z" fill="#0A738D"/>
</svg>
